# xmcd
#
# Track frame offsets:
#	150
#	20791
#	42833
#	62274
#	80761
#	100712
#	120716
#	144398
#	158807
#	182643
#	203067
#	221679
#
# Disc length: 3196 seconds
#
# Revision: 2
# Processed by: cddbd v1.5.2PL0 Copyright (c) Steve Scherf et al.
# Submitted via: EZCDAudioConverter 7.1.5.1
#
DISCID=a10c7a0c
DTITLE=吉馬大對唱 - 吉馬大對唱 10 CD 典藏版
DYEAR=20110616
DGENRE=
TTITLE0=浮世情懷
TTITLE1=愛上一個不回家的人
TTITLE2=夢醒時分
TTITLE3=半點心
TTITLE4=為了愛夢一生
TTITLE5=孤星
TTITLE6=哭砂
TTITLE7=其實你不懂我的心
TTITLE8=風中的承諾
TTITLE9=忘記你不如忘記自己
TTITLE10=不想你也難
TTITLE11=單身貴族
EXTD=
EXTT0=
EXTT1=
EXTT2=
EXTT3=
EXTT4=
EXTT5=
EXTT6=
EXTT7=
EXTT8=
EXTT9=
EXTT10=
EXTT11=
PLAYORDER=
